<svg width="21" height="13" viewBox="0 0 21 13" fill="none" xmlns="http://www.w3.org/2000/svg">
<path d="M8.40234 11.6133L2.96094 6.39063L8.40234 1.16797L7.36328 0.101563L0.800781 6.39063L7.36328 12.6797L8.40234 11.6133ZM20.625 5.65234L20.625 7.12891L19.1484 7.12891L19.1484 5.65234L20.625 5.65234ZM17.6445 5.65234L17.6445 7.12891L16.1406 7.12891L16.1406 5.65234L17.6445 5.65234ZM14.6367 5.65234L14.6367 7.12891L13.1328 7.12891L13.1328 5.65234L14.6367 5.65234ZM11.6289 5.65234L11.6289 7.12891L10.125 7.12891L10.125 5.65234L11.6289 5.65234ZM8.64844 5.65234L8.64844 7.12891L7.14453 7.12891L7.14453 5.65234L8.64844 5.65234ZM5.64063 5.65234L5.64063 7.12891L4.13672 7.12891L4.13672 5.65234L5.64063 5.65234Z" fill="white"/>
</svg>
