<svg width="48" height="48" viewBox="0 0 48 48" fill="none" xmlns="http://www.w3.org/2000/svg">
<path d="M24 48C37.2548 48 48 37.2548 48 24C48 10.7452 37.2548 0 24 0C10.7452 0 0 10.7452 0 24C0 37.2548 10.7452 48 24 48Z" fill="black"/>
<path d="M33.826 11.2821L30.023 10.3103C29.404 10.1131 28.756 9.97229 28.08 9.88779C27.404 9.77509 26.699 9.71875 25.967 9.71875C25.854 9.71875 25.728 9.73283 25.587 9.761C25.474 9.761 25.347 9.761 25.206 9.761H25.249C24.939 9.761 24.629 9.78917 24.319 9.84549C24.009 9.90189 23.713 9.98639 23.432 10.099H23.474C22.826 10.4089 22.192 10.9723 21.573 11.7892C20.953 12.6061 20.643 13.8878 20.643 15.6343V20.2821C20.643 20.2821 20.643 20.2962 20.643 20.3244C20.643 20.3526 20.643 20.3807 20.643 20.4089V37.7751C20.643 37.9723 20.713 38.1554 20.854 38.3244C21.023 38.4652 21.221 38.5357 21.446 38.5357C21.643 38.5357 21.812 38.4652 21.953 38.3244C22.122 38.1554 22.206 37.9723 22.206 37.7751V25.2258H29.77C29.967 25.2258 30.136 25.1554 30.277 25.0145C30.446 24.8455 30.53 24.6483 30.53 24.423C30.53 24.2258 30.446 24.0568 30.277 23.9159C30.136 23.7469 29.967 23.6624 29.77 23.6624H22.206V20.2821C22.206 20.254 22.206 20.2399 22.206 20.2399C22.206 20.2117 22.206 20.1976 22.206 20.1976C22.206 20.1976 22.206 20.1835 22.206 20.1554V15.6765C22.178 15.592 22.164 15.5075 22.164 15.423C22.164 15.3103 22.164 15.2117 22.164 15.1272C22.164 14.3666 22.333 13.6765 22.671 13.0568C23.037 12.4371 23.502 11.93 24.066 11.5357H24.108C24.277 11.4793 24.46 11.4371 24.657 11.4089C24.882 11.3526 25.108 11.3244 25.333 11.3244C25.446 11.3244 25.573 11.3244 25.713 11.3244C25.854 11.3244 26.009 11.3244 26.178 11.3244C26.77 11.3244 27.361 11.3666 27.953 11.4512C28.573 11.5075 29.164 11.6202 29.728 11.7892L29.601 11.7469L33.404 12.761C33.432 12.761 33.46 12.761 33.488 12.761C33.544 12.761 33.587 12.761 33.615 12.761C33.84 12.761 34.023 12.6906 34.164 12.5497C34.333 12.3807 34.418 12.1976 34.418 12.0004C34.418 11.8033 34.361 11.6343 34.249 11.4934C34.136 11.3526 33.995 11.254 33.826 11.1976V11.2821ZM18.953 23.6624H15.868C15.643 23.6624 15.446 23.7469 15.277 23.9159C15.136 24.0568 15.066 24.2258 15.066 24.423C15.066 24.6483 15.136 24.8455 15.277 25.0145C15.446 25.1554 15.643 25.2258 15.868 25.2258H18.953C19.15 25.2258 19.319 25.1554 19.46 25.0145C19.629 24.8455 19.713 24.6483 19.713 24.423C19.713 24.2258 19.629 24.0568 19.46 23.9159C19.319 23.7469 19.15 23.6624 18.953 23.6624Z" fill="white"/>
</svg>
