<svg width="48" height="48" viewBox="0 0 48 48" fill="none" xmlns="http://www.w3.org/2000/svg">
<path d="M24 48C37.2548 48 48 37.2548 48 24C48 10.7452 37.2548 0 24 0C10.7452 0 0 10.7452 0 24C0 37.2548 10.7452 48 24 48Z" fill="black"/>
<path d="M24.635 15.1692C23.452 15.1692 22.353 15.3945 21.339 15.8452C20.297 16.2678 19.381 16.8734 18.593 17.6621C17.832 18.4227 17.24 19.3241 16.818 20.3663C16.367 21.3804 16.142 22.479 16.142 23.6621C16.142 24.8452 16.367 25.9438 16.818 26.9579C17.24 28.0001 17.832 28.9156 18.593 29.7044C19.381 30.4649 20.297 31.0565 21.339 31.479C22.353 31.9297 23.452 32.1551 24.635 32.1551C25.818 32.1551 26.917 31.9297 27.931 31.479C28.973 31.0565 29.874 30.4649 30.635 29.7044C31.424 28.9156 32.029 28.0001 32.452 26.9579C32.902 25.9438 33.128 24.8452 33.128 23.6621C33.128 22.479 32.902 21.3804 32.452 20.3663C32.001 19.3241 31.395 18.4227 30.635 17.6621C29.874 16.9016 28.973 16.2959 27.931 15.8452C26.917 15.3945 25.818 15.1692 24.635 15.1692ZM24.635 30.634C22.719 30.634 21.071 29.9579 19.691 28.6058C18.339 27.2255 17.663 25.5776 17.663 23.6621C17.663 21.7466 18.339 20.1128 19.691 18.7607C21.071 17.3804 22.719 16.6903 24.635 16.6903C26.55 16.6903 28.184 17.3804 29.536 18.7607C30.917 20.1128 31.607 21.7466 31.607 23.6621C31.579 25.5776 30.888 27.2114 29.536 28.5635C28.184 29.9156 26.55 30.6058 24.635 30.634ZM33.888 9.76074C33.043 9.76074 32.311 10.0706 31.691 10.6903C31.1 11.2818 30.804 12.0001 30.804 12.8452C30.804 13.6903 31.1 14.4227 31.691 15.0424C32.311 15.6339 33.043 15.9297 33.888 15.9297C34.762 15.9297 35.494 15.6339 36.086 15.0424C36.705 14.4227 37.015 13.6903 37.015 12.8452C37.015 12.0001 36.705 11.2818 36.086 10.6903C35.494 10.0706 34.762 9.76074 33.888 9.76074ZM33.888 14.4086C33.466 14.4086 33.1 14.2537 32.79 13.9438C32.508 13.6339 32.367 13.2678 32.367 12.8452C32.367 12.4227 32.508 12.0565 32.79 11.7466C33.1 11.4368 33.466 11.2818 33.888 11.2818C34.339 11.2818 34.705 11.4368 34.987 11.7466C35.297 12.0565 35.452 12.4227 35.452 12.8452C35.452 13.2678 35.297 13.6339 34.987 13.9438C34.705 14.2537 34.339 14.4086 33.888 14.4086Z" fill="white"/>
</svg>
