<svg width="48" height="48" viewBox="0 0 48 48" fill="none" xmlns="http://www.w3.org/2000/svg">
<path d="M24 48C37.2548 48 48 37.2548 48 24C48 10.7452 37.2548 0 24 0C10.7452 0 0 10.7452 0 24C0 37.2548 10.7452 48 24 48Z" fill="black"/>
<path d="M15.1687 15.9299C14.9433 15.9299 14.7602 16.0144 14.6194 16.1834C14.4786 16.3243 14.4081 16.4933 14.4081 16.6905V32.1553C14.4081 32.3806 14.4786 32.5637 14.6194 32.7046C14.7602 32.8454 14.9433 32.9158 15.1687 32.9158C15.3659 32.9158 15.5349 32.8454 15.6757 32.7046C15.8447 32.5637 15.9293 32.3806 15.9293 32.1553V16.6905C15.9293 16.4933 15.8447 16.3243 15.6757 16.1834C15.5349 16.0144 15.3659 15.9299 15.1687 15.9299ZM16.0983 12.0849C16.0983 12.3384 15.9997 12.5637 15.8025 12.7609C15.6335 12.9299 15.4222 13.0144 15.1687 13.0144C14.9152 13.0144 14.6898 12.9299 14.4926 12.7609C14.3236 12.5637 14.2391 12.3384 14.2391 12.0849C14.2391 11.8313 14.3236 11.6201 14.4926 11.4511C14.6898 11.2539 14.9152 11.1553 15.1687 11.1553C15.4222 11.1553 15.6335 11.2539 15.8025 11.4511C15.9997 11.6201 16.0983 11.8313 16.0983 12.0849ZM27.5067 15.8454C26.4363 15.8454 25.4363 16.0567 24.5067 16.4792C23.5771 16.9018 22.7884 17.4933 22.1405 18.2539H22.0983V16.6905C22.0983 16.4933 22.0278 16.3243 21.887 16.1834C21.7462 16.0144 21.5631 15.9299 21.3377 15.9299C21.1405 15.9299 20.9574 16.0144 20.7884 16.1834C20.6476 16.3243 20.5771 16.4933 20.5771 16.6905V32.1553C20.5771 32.3806 20.6476 32.5637 20.7884 32.7046C20.9574 32.8454 21.1405 32.9158 21.3377 32.9158C21.5631 32.9158 21.7462 32.8454 21.887 32.7046C22.0278 32.5637 22.0983 32.3806 22.0983 32.1553V22.2257C22.1828 20.8736 22.718 19.7327 23.7039 18.8032C24.6898 17.8454 25.8729 17.3665 27.2532 17.3665C27.3095 17.3665 27.3518 17.3665 27.38 17.3665C27.4363 17.3665 27.4926 17.3665 27.549 17.3665H27.5067C27.5631 17.3665 27.6053 17.3665 27.6335 17.3665C27.6898 17.3665 27.7462 17.3665 27.8025 17.3665C29.1546 17.3665 30.3236 17.8313 31.3095 18.7609C32.3236 19.6905 32.8588 20.8313 32.9152 22.1834V22.2257V32.1553C32.9152 32.3525 32.9856 32.5356 33.1264 32.7046C33.2955 32.8454 33.4926 32.9158 33.718 32.9158C33.9152 32.9158 34.0842 32.8454 34.225 32.7046C34.394 32.5356 34.4786 32.3525 34.4786 32.1553V22.2257C34.394 20.4229 33.7039 18.9018 32.4081 17.6623C31.1405 16.4229 29.6053 15.8032 27.8025 15.8032C27.7462 15.8032 27.6898 15.8172 27.6335 15.8454C27.6053 15.8454 27.5631 15.8454 27.5067 15.8454Z" fill="white"/>
</svg>
