<svg width="21" height="13" viewBox="0 0 21 13" fill="none" xmlns="http://www.w3.org/2000/svg">
<g clip-path="url(#clip0_124_193)">
<path d="M12.5977 1.3867L18.0391 6.60937L12.5977 11.832L13.6367 12.8984L20.1992 6.60937L13.6367 0.320302L12.5977 1.3867ZM0.375 7.34766L0.374999 5.87109L1.8516 5.87109L1.8516 7.34766L0.375 7.34766ZM3.3555 7.34766L3.3555 5.87109L4.8594 5.87109L4.8594 7.34766L3.3555 7.34766ZM6.3633 7.34766L6.3633 5.87109L7.8672 5.87109L7.8672 7.34766L6.3633 7.34766ZM9.3711 7.34766L9.3711 5.87109L10.875 5.87109L10.875 7.34766L9.3711 7.34766ZM12.3516 7.34766L12.3516 5.87109L13.8555 5.87109L13.8555 7.34766L12.3516 7.34766ZM15.3594 7.34766L15.3594 5.87109L16.8633 5.87109L16.8633 7.34766L15.3594 7.34766Z" fill="white"/>
</g>
<defs>
<clipPath id="clip0_124_193">
<rect width="21" height="13" fill="white" transform="translate(21 13) rotate(180)"/>
</clipPath>
</defs>
</svg>
