<svg width="44" height="32" viewBox="0 0 44 32" fill="none" xmlns="http://www.w3.org/2000/svg">
<path d="M43.4113 22.2989C43.4113 17.1389 39.8113 13.6589 34.6513 13.6589C33.3313 13.6589 32.2513 13.8989 31.2913 14.2589C32.6113 7.53887 36.9313 4.17887 42.8113 1.17886L42.4513 0.338867C32.4913 3.09887 23.2513 11.4989 23.2513 20.0189C23.2513 27.5789 27.2113 31.4189 33.8113 31.4189C39.2113 31.4189 43.4113 27.6989 43.4113 22.2989ZM20.7313 22.2989C20.7313 17.1389 17.2513 13.6589 12.0913 13.6589C10.7713 13.6589 9.69129 13.8989 8.73129 14.2589C9.69129 7.65887 14.3713 4.17887 20.1313 1.17886L19.8913 0.338867C9.93129 3.09887 0.571289 11.4989 0.571289 20.0189C0.571289 27.5789 4.65129 31.4189 11.1313 31.4189C16.5313 31.4189 20.7313 27.6989 20.7313 22.2989Z" fill="black"/>
</svg>
