<svg width="29" height="29" viewBox="0 0 29 29" fill="none" xmlns="http://www.w3.org/2000/svg">
<path d="M14.8662 0.408203C12.9339 0.408203 11.1201 0.772786 9.4248 1.50195C7.71126 2.23112 6.21647 3.23372 4.94043 4.50977C3.68262 5.76758 2.68913 7.25326 1.95996 8.9668C1.23079 10.6621 0.866211 12.4759 0.866211 14.4082C0.866211 16.3405 1.23079 18.1543 1.95996 19.8496C2.68913 21.5632 3.68262 23.0579 4.94043 24.334C6.21647 25.5918 7.71126 26.5853 9.4248 27.3145C11.1201 28.0436 12.9339 28.4082 14.8662 28.4082C16.7985 28.4082 18.6123 28.0436 20.3076 27.3145C22.0212 26.5853 23.5068 25.5918 24.7646 24.334C26.0407 23.0579 27.0433 21.5632 27.7725 19.8496C28.5016 18.1543 28.8662 16.3405 28.8662 14.4082C28.8662 12.4759 28.5016 10.6621 27.7725 8.9668C27.0433 7.25326 26.0407 5.76758 24.7646 4.50977C23.5068 3.23372 22.0212 2.23112 20.3076 1.50195C18.6123 0.772786 16.7985 0.408203 14.8662 0.408203ZM14.8662 27.3965C13.0798 27.3965 11.3936 27.0592 9.80762 26.3848C8.22168 25.7103 6.83626 24.7897 5.65137 23.623C4.4847 22.4382 3.56413 21.0527 2.88965 19.4668C2.21517 17.8809 1.87793 16.1947 1.87793 14.4082C1.87793 12.6217 2.21517 10.9355 2.88965 9.34961C3.56413 7.76367 4.4847 6.38737 5.65137 5.2207C6.83626 4.03581 8.22168 3.10612 9.80762 2.43164C11.3936 1.75716 13.0798 1.41992 14.8662 1.41992C16.6527 1.41992 18.3389 1.75716 19.9248 2.43164C21.5107 3.10612 22.887 4.03581 24.0537 5.2207C25.2386 6.38737 26.1683 7.76367 26.8428 9.34961C27.5173 10.9355 27.8545 12.6217 27.8545 14.4082C27.8545 16.1947 27.5173 17.8809 26.8428 19.4668C26.1683 21.0527 25.2386 22.4382 24.0537 23.623C22.887 24.7897 21.5107 25.7103 19.9248 26.3848C18.3389 27.0592 16.6527 27.3965 14.8662 27.3965ZM20.3623 14.4082C20.3623 14.2624 20.3076 14.1439 20.1982 14.0527C20.1071 13.9616 19.9977 13.916 19.8701 13.916H5.87012C5.72428 13.916 5.60579 13.9616 5.51465 14.0527C5.4235 14.1439 5.37793 14.2624 5.37793 14.4082C5.37793 14.554 5.4235 14.6725 5.51465 14.7637C5.60579 14.8548 5.72428 14.9004 5.87012 14.9004H19.8701C19.9977 14.9004 20.1071 14.8548 20.1982 14.7637C20.3076 14.6725 20.3623 14.554 20.3623 14.4082ZM17.1357 7.54492C17.0993 7.50846 17.0446 7.48112 16.9717 7.46289C16.917 7.42643 16.8532 7.4082 16.7803 7.4082C16.7074 7.4082 16.6436 7.42643 16.5889 7.46289C16.5342 7.48112 16.4795 7.50846 16.4248 7.54492C16.3883 7.59961 16.3519 7.66341 16.3154 7.73633C16.2972 7.79102 16.2881 7.8457 16.2881 7.90039C16.2881 7.97331 16.2972 8.04622 16.3154 8.11914C16.3519 8.17383 16.3883 8.2194 16.4248 8.25586L22.2217 14.0527C22.2581 14.1074 22.2855 14.1621 22.3037 14.2168C22.3402 14.2715 22.3584 14.3353 22.3584 14.4082C22.3584 14.4811 22.3402 14.5449 22.3037 14.5996C22.2855 14.6543 22.2581 14.709 22.2217 14.7637L16.4248 20.5605C16.3883 20.597 16.3519 20.6517 16.3154 20.7246C16.2972 20.7793 16.2881 20.8431 16.2881 20.916C16.2881 21.0436 16.3337 21.1621 16.4248 21.2715C16.516 21.3626 16.6344 21.4082 16.7803 21.4082C16.8532 21.4082 16.917 21.3991 16.9717 21.3809C17.0264 21.3444 17.0811 21.3079 17.1357 21.2715L22.9326 15.4746C23.0602 15.3288 23.1605 15.1647 23.2334 14.9824C23.3245 14.8001 23.3701 14.6087 23.3701 14.4082C23.3701 14.2077 23.3245 14.0163 23.2334 13.834C23.1605 13.6517 23.0602 13.4876 22.9326 13.3418L17.1357 7.54492Z" fill="white"/>
</svg>
