<svg width="66" height="38" viewBox="0 0 66 38" fill="none" xmlns="http://www.w3.org/2000/svg">
<path d="M3.04496 37.0622H4.80481L6.26248 32.8658L7.73081 37.0622H9.49066L11.9272 29.7227H9.8354L8.56498 33.9383L7.15837 29.7014H5.41981L4.01319 33.9383L2.74278 29.7227H0.608398L3.04496 37.0622Z" fill="#C4C4C4" fill-opacity="0.6"/>
<path fill-rule="evenodd" clip-rule="evenodd" d="M16 35.3339C14.8955 35.3339 14.1358 34.4188 14.1358 33.3655V33.3463C14.1358 32.293 14.8743 31.3992 15.9787 31.3992C17.0831 31.3992 17.8535 32.3142 17.8535 33.3655V33.3867C17.8535 34.438 17.1129 35.3339 16 35.3339ZM15.9787 37.1576C18.228 37.1576 19.9134 35.4552 19.9134 33.3655V33.3463C19.9134 31.2524 18.2471 29.5755 16 29.5755C13.7528 29.5755 12.0632 31.2779 12.0632 33.3655V33.3867C12.0632 35.4807 13.7294 37.1576 15.9787 37.1576Z" fill="#C4C4C4" fill-opacity="0.6"/>
<path fill-rule="evenodd" clip-rule="evenodd" d="M24.6524 35.3339C23.548 35.3339 22.7883 34.4188 22.7883 33.3655V33.3463C22.7883 32.293 23.5267 31.3992 24.6311 31.3992C25.7356 31.3992 26.5059 32.3142 26.5059 33.3655V33.3867C26.5059 34.438 25.7675 35.3339 24.6524 35.3339ZM24.6311 37.1576C26.8804 37.1576 28.5679 35.4552 28.5679 33.3655V33.3463C28.5679 31.2524 26.9017 29.5755 24.6524 29.5755C22.4031 29.5755 20.7156 31.2779 20.7156 33.3655V33.3867C20.7156 35.4807 22.3818 37.1576 24.6311 37.1576Z" fill="#C4C4C4" fill-opacity="0.6"/>
<path d="M32.5051 37.0113H34.5033V33.0128L37.6165 37.0113H39.387V29.7229H37.3888V33.5746L34.3883 29.7229H32.5051V37.0113Z" fill="#C4C4C4" fill-opacity="0.6"/>
<path d="M42.7496 29.7208H40.7195V37.0113H42.7496V29.7208Z" fill="#C4C4C4" fill-opacity="0.6"/>
<path d="M44.0836 37.0113H46.0839V33.0128L49.1972 37.0113H50.9677V29.7229H48.9673V33.5746L45.969 29.7229H44.0836V37.0113Z" fill="#C4C4C4" fill-opacity="0.6"/>
<path d="M54.2144 37.1369C54.5804 37.1535 54.9461 37.0965 55.2896 36.9693C55.6332 36.8421 55.9478 36.6473 56.2147 36.3963C56.7042 35.9069 56.934 35.2621 56.934 34.3449V29.7208H54.923V34.3343C54.923 35.011 54.5996 35.3557 54.091 35.3557C53.642 35.3557 53.3079 35.1067 52.9546 34.679L51.6544 35.9069C52.163 36.6049 52.944 37.1369 54.208 37.1369" fill="#C4C4C4" fill-opacity="0.6"/>
<path fill-rule="evenodd" clip-rule="evenodd" d="M60.526 34.1379L61.3495 32.0674L62.1603 34.1379H60.526ZM57.2871 37.0128H59.4151L59.9365 35.7105H62.7476L63.2796 37.0128H65.4459L62.3369 29.6691H60.3898L57.2871 37.0128Z" fill="#C4C4C4" fill-opacity="0.6"/>
<path d="M53.8125 9.4538C53.0616 8.85906 52.1902 8.43499 51.2589 8.21105C52.2849 7.0078 52.8736 5.49281 52.9294 3.91249C51.8808 3.44557 50.7336 3.2433 49.5885 3.32345C48.4435 3.40359 47.3357 3.7637 46.3624 4.37214C45.5967 4.84962 44.9317 5.47199 44.4046 6.20435C42.5755 3.46076 39.8211 1.46605 36.6439 0.583989C33.4667 -0.298071 30.0782 -0.0087014 27.0966 1.39932C24.1149 2.80734 21.7387 5.24021 20.4012 8.2542C19.0638 11.2682 18.8543 14.6625 19.811 17.8181C20.7676 20.9737 22.8266 23.6803 25.6125 25.4443C28.3984 27.2083 31.7256 27.9121 34.9872 27.4274C38.2488 26.9428 41.2275 25.3019 43.3801 22.804C45.5327 20.3062 46.7157 17.1178 46.7135 13.8204V13.5651V13.4119V13.3097V13.1672V13.0884C47.8171 13.6768 49.0649 13.9405 50.3122 13.8489C51.5596 13.7574 52.7555 13.3145 53.7614 12.5713C54.337 12.1447 54.84 11.6281 55.251 11.0413C54.8603 10.438 54.3745 9.9019 53.8125 9.4538ZM32.99 2.18456C34.7635 2.18349 36.5137 2.58879 38.1061 3.36935C39.6986 4.14991 41.0911 5.28497 42.1766 6.6874H23.8034C24.889 5.28497 26.2814 4.14991 27.8739 3.36935C29.4664 2.58879 31.2165 2.18349 32.99 2.18456ZM37.9504 11.6052C38.314 11.6048 38.6707 11.506 38.9827 11.3192C39.2946 11.1324 39.5501 10.8646 39.7221 10.5442C39.894 10.2238 39.976 9.86289 39.9593 9.49967C39.9426 9.13645 39.8279 8.78454 39.6272 8.4813H41.3467C41.5172 9.00935 41.5604 9.57023 41.4728 10.1182C41.3852 10.6661 41.1693 11.1856 40.8428 11.6342C40.5162 12.0828 40.0882 12.4478 39.5936 12.6995C39.0991 12.9512 38.5521 13.0824 37.9972 13.0824C37.4423 13.0824 36.8953 12.9512 36.4007 12.6995C35.9062 12.4478 35.4782 12.0828 35.1516 11.6342C34.8251 11.1856 34.6092 10.6661 34.5216 10.1182C34.434 9.57023 34.4773 9.00935 34.6477 8.4813H37.4397C37.5339 8.57746 37.6073 8.69193 37.6555 8.81764C37.7036 8.94335 37.7255 9.0776 37.7196 9.21209C37.7138 9.34658 37.6803 9.47843 37.6215 9.59948C37.5626 9.72053 37.4794 9.82819 37.3772 9.91579C37.275 10.0034 37.1559 10.0691 37.0273 10.1088C36.8986 10.1485 36.7632 10.1613 36.6294 10.1465C36.4956 10.1317 36.3663 10.0896 36.2494 10.0228C36.1326 9.95601 36.0307 9.86591 35.9501 9.7581C35.9916 10.2605 36.2202 10.7291 36.5906 11.0711C36.961 11.4131 37.4462 11.6037 37.9504 11.6052ZM28.4701 11.6052C28.8335 11.6044 29.1898 11.5052 29.5013 11.3181C29.8128 11.1309 30.0677 10.8629 30.239 10.5425C30.4104 10.2221 30.4917 9.86126 30.4744 9.49833C30.4571 9.13539 30.3417 8.78393 30.1406 8.4813H31.8622C31.9714 8.8255 32.028 9.1842 32.0303 9.5453C32.0328 10.0545 31.9248 10.5582 31.7137 11.0216C31.5026 11.485 31.1934 11.8971 30.8076 12.2294C30.4218 12.5618 29.9684 12.8064 29.4788 12.9465C28.9892 13.0866 28.4751 13.1187 27.9719 13.0408C27.4686 12.9628 26.9883 12.7766 26.564 12.495C26.1398 12.2134 25.7817 11.843 25.5145 11.4096C25.2472 10.9761 25.0773 10.4898 25.0163 9.98424C24.9552 9.47868 25.0047 8.9659 25.1611 8.4813H28.0126C28.1089 8.58171 28.1837 8.70065 28.2326 8.83088C28.2814 8.96111 28.3033 9.09993 28.2968 9.23887C28.2903 9.37782 28.2557 9.51399 28.1949 9.63912C28.1342 9.76425 28.0486 9.87571 27.9434 9.96673C27.8382 10.0578 27.7157 10.1264 27.5831 10.1686C27.4505 10.2107 27.3108 10.2255 27.1724 10.212C27.0339 10.1984 26.8997 10.1569 26.7778 10.0898C26.6559 10.0228 26.549 9.93162 26.4634 9.82194C26.5195 10.3142 26.7553 10.7684 27.1257 11.0974C27.496 11.4265 27.9747 11.6073 28.4701 11.6052ZM44.4791 15.7122C44.0381 18.4422 42.6395 20.9261 40.5339 22.7188C38.4284 24.5116 35.7533 25.4961 32.9879 25.4961C30.2225 25.4961 27.5474 24.5116 25.4418 22.7188C23.3362 20.9261 21.9377 18.4422 21.4967 15.7122C21.3957 15.0881 21.3452 14.4569 21.3456 13.8247C21.3456 13.7332 21.3456 13.6438 21.3456 13.5544H25.3335C26.235 14.2709 27.3527 14.6608 28.5042 14.6608C29.6558 14.6608 30.7733 14.2709 31.6749 13.5544H34.8222C35.7238 14.2709 36.8414 14.6608 37.9929 14.6608C39.1445 14.6608 40.2621 14.2709 41.1637 13.5544H44.611C44.611 13.6523 44.6238 13.746 44.6238 13.846C44.6254 14.4709 44.577 15.095 44.4791 15.7122ZM46.8348 8.41746C46.739 8.43661 46.6433 8.45151 46.5454 8.46215H46.5007C46.3985 8.47492 46.2879 8.48343 46.19 8.48981H46.1708C45.9851 8.50045 45.799 8.50045 45.6133 8.48981C45.681 8.32852 45.757 8.17083 45.841 8.0174C46.0304 7.66597 46.2635 7.33992 46.5347 7.04703L46.5645 7.01298C46.699 6.87464 46.8411 6.74392 46.9901 6.62143L47.0646 6.56185C47.215 6.43882 47.3727 6.32512 47.537 6.22137C48.3965 5.68267 49.404 5.42875 50.4162 5.49572C50.0338 6.43594 49.3633 7.23083 48.501 7.76629C48.3946 7.83155 48.2861 7.89327 48.1754 7.95143C48.1286 7.97697 48.0797 7.99825 48.0328 8.01953C47.986 8.04081 47.9073 8.08124 47.8434 8.1089C47.7796 8.13657 47.7179 8.15997 47.6519 8.18338C47.586 8.20679 47.5583 8.22169 47.5115 8.23658C47.4647 8.25148 47.3583 8.28553 47.2817 8.30681L47.1774 8.33873C47.0902 8.36213 47.0029 8.38129 46.9156 8.39831L46.8348 8.41746ZM49.7352 11.8074C48.7749 11.7925 47.8439 11.4745 47.0752 10.8987C47.8635 10.3508 48.8043 10.0649 49.7642 10.0817C50.7241 10.0985 51.6543 10.4171 52.4229 10.9923C51.6349 11.5396 50.6945 11.8248 49.7352 11.8074Z" fill="#C4C4C4" fill-opacity="0.6"/>
</svg>
