<svg width="48" height="48" viewBox="0 0 48 48" fill="none" xmlns="http://www.w3.org/2000/svg">
<path d="M24 48C37.2548 48 48 37.2548 48 24C48 10.7452 37.2548 0 24 0C10.7452 0 0 10.7452 0 24C0 37.2548 10.7452 48 24 48Z" fill="black"/>
<path d="M34.9659 23.4933C34.9659 23.4651 34.9659 23.437 34.9659 23.4088C34.9659 23.3806 34.9659 23.3525 34.9659 23.3243C34.9659 23.3243 34.9659 23.2961 34.9659 23.2398L34.8391 23.1553L34.7546 23.0285L19.2898 12.9722C19.2335 12.944 19.1772 12.9299 19.1208 12.9299C19.0645 12.9018 18.9941 12.8877 18.9096 12.8877C18.7124 12.8877 18.5293 12.9722 18.3603 13.1412C18.2194 13.282 18.149 13.4511 18.149 13.6482C18.149 13.7891 18.1772 13.9158 18.2335 14.0285C18.2898 14.113 18.3603 14.1975 18.4448 14.282L32.7687 23.6623L19.5011 32.282V17.4933C19.5011 17.268 19.4307 17.0849 19.2898 16.944C19.149 16.775 18.9659 16.6905 18.7406 16.6905C18.5152 16.6905 18.3321 16.775 18.1913 16.944C18.0504 17.0849 17.98 17.268 17.98 17.4933V33.7187C17.98 33.8595 18.0082 33.9863 18.0645 34.0989C18.149 34.2116 18.2476 34.3102 18.3603 34.3947C18.4166 34.4229 18.473 34.4511 18.5293 34.4792C18.6138 34.4792 18.6983 34.4792 18.7828 34.4792C18.8391 34.4792 18.8955 34.4792 18.9518 34.4792C19.0363 34.4511 19.1068 34.4229 19.1631 34.3947L34.6279 24.3384C34.656 24.3102 34.6842 24.282 34.7124 24.2539C34.7687 24.1975 34.811 24.1553 34.8391 24.1271C34.8391 24.0989 34.8391 24.0567 34.8391 24.0003C34.8391 23.9722 34.8391 23.944 34.8391 23.9158C34.8391 23.8877 34.8391 23.8595 34.8391 23.8313C34.8391 23.8032 34.8391 23.7891 34.8391 23.7891C34.8391 23.7609 34.8391 23.7468 34.8391 23.7468C34.8391 23.7187 34.8391 23.7046 34.8391 23.7046C34.8673 23.6764 34.8814 23.6482 34.8814 23.6201C34.9096 23.5919 34.9377 23.5496 34.9659 23.4933Z" fill="white"/>
</svg>
