<svg width="64" height="32" viewBox="0 0 64 32" fill="none" xmlns="http://www.w3.org/2000/svg">
<path d="M0.923828 29.5258L4.60101 25.389H1.04937V23.6717H7.40782V25.1506L3.73064 29.2875H7.40782V31.0048H0.923828V29.5258Z" fill="#C4C4C4" fill-opacity="0.6"/>
<path d="M10.9957 23.619H12.9535L16.0752 31.0031H13.9047L13.3706 29.6944H10.5425L10.0211 31.0031H7.89311L10.9957 23.619ZM12.7769 28.1133L11.9597 26.0278L11.1319 28.1133H12.7769Z" fill="#C4C4C4" fill-opacity="0.6"/>
<path d="M16.7877 23.6717H20.5478C21.4693 23.6717 22.1183 23.9015 22.5482 24.3314C22.703 24.4861 22.8247 24.6709 22.9055 24.8744C22.9864 25.0778 23.0248 25.2957 23.0185 25.5145V25.5358C23.0185 26.387 22.5375 26.8871 21.8885 27.1701C22.778 27.4617 23.344 27.966 23.344 28.9598V28.981C23.344 30.2387 22.3183 31.0026 20.5776 31.0026H16.7962L16.7877 23.6717ZM20.0456 26.5934C20.6628 26.5934 21.0096 26.3806 21.0096 25.955V25.9338C21.0096 25.5358 20.6947 25.2954 20.0861 25.2954H18.7667V26.5828L20.0456 26.5934ZM20.3393 29.3598C20.9564 29.3598 21.3118 29.1194 21.3118 28.6895V28.6682C21.3118 28.2703 20.999 28.0085 20.318 28.0085H18.7667V29.3598H20.3393Z" fill="#C4C4C4" fill-opacity="0.6"/>
<path d="M24.2756 23.6717H30.1723V25.3996H26.2865V26.5104H29.8062V28.1128H26.2865V29.2747H30.2255V31.0026H24.2671L24.2756 23.6717Z" fill="#C4C4C4" fill-opacity="0.6"/>
<path d="M30.9606 27.357V27.3357C30.9544 26.829 31.0506 26.3262 31.2433 25.8575C31.436 25.3888 31.7212 24.9638 32.0821 24.608C32.4429 24.2521 32.8718 23.9728 33.3431 23.7866C33.8144 23.6004 34.3185 23.5112 34.8251 23.5245C36.3147 23.5245 37.2851 24.1522 37.9341 25.0524L36.4062 26.2377C35.9806 25.7142 35.506 25.3865 34.8038 25.3865C33.7781 25.3865 33.0546 26.2547 33.0546 27.3251V27.3442C33.0546 28.4444 33.7781 29.3041 34.8038 29.3041C35.5677 29.3041 36.0189 28.9466 36.4594 28.4125L37.9873 29.502C37.2957 30.4553 36.3636 31.1576 34.74 31.1576C34.2397 31.1654 33.7429 31.0723 33.2795 30.8838C32.816 30.6953 32.3953 30.4153 32.0425 30.0605C31.6897 29.7057 31.4121 29.2835 31.2262 28.819C31.0403 28.3544 30.95 27.8572 30.9606 27.357Z" fill="#C4C4C4" fill-opacity="0.6"/>
<path d="M38.6598 28.96H40.7325V31.0029H38.6598V28.96Z" fill="#C4C4C4" fill-opacity="0.6"/>
<path d="M41.8323 23.6717H43.7284L46.7437 27.5468V23.6717H48.7547V31.0026H46.9736L43.8433 26.9807V31.0026H41.8323V23.6717Z" fill="#C4C4C4" fill-opacity="0.6"/>
<path d="M50.0543 23.6717H55.9488V25.3996H52.0631V26.5104H55.5828V28.1128H52.0631V29.2747H56.002V31.0026H50.0543V23.6717Z" fill="#C4C4C4" fill-opacity="0.6"/>
<path d="M58.8301 25.4528H56.6319V23.6717H63.0605V25.4528H60.8623V31.0026H58.8301V25.4528Z" fill="#C4C4C4" fill-opacity="0.6"/>
<path d="M43.7416 11.474C44.2541 10.5977 44.5775 9.62393 44.6911 8.61518C44.8047 7.60644 44.7059 6.58508 44.4012 5.61678C44.0964 4.64848 43.5924 3.75467 42.9216 2.99281C42.2507 2.23096 41.4278 1.61791 40.5059 1.1931C39.5839 0.768295 38.5833 0.541118 37.5683 0.526179C36.5532 0.51124 35.5463 0.708869 34.6123 1.10636C33.6782 1.50385 32.8377 2.09241 32.1447 2.8342C31.4517 3.57598 30.9216 4.45457 30.5885 5.41348L30.3906 5.43689C29.9424 4.57727 29.3161 3.82307 28.5535 3.22458C27.7908 2.62609 26.9094 2.19706 25.9678 1.96609C25.0263 1.73513 24.0464 1.70753 23.0934 1.88515C22.1403 2.06276 21.2361 2.44151 20.441 2.99614C19.6459 3.55076 18.9782 4.26852 18.4823 5.10155C17.9865 5.93459 17.6739 6.86376 17.5655 7.82711C17.4571 8.79047 17.5552 9.76587 17.8535 10.6883C18.1518 11.6107 18.6432 12.4589 19.2952 13.1764C17.9884 15.7544 17.5006 18.6701 17.8971 21.5331H46.1526C46.2426 20.8936 46.2874 20.2487 46.2867 19.603C46.2902 16.6967 45.4018 13.8594 43.7416 11.474ZM37.4619 2.78328C38.4548 2.78328 39.4255 3.07775 40.251 3.62944C41.0766 4.18113 41.72 4.96526 42.0999 5.88266C42.4798 6.80006 42.5791 7.80952 42.3852 8.78335C42.1913 9.75718 41.713 10.6516 41.0108 11.3536C40.3085 12.0556 39.4138 12.5335 38.4399 12.727C37.466 12.9204 36.4566 12.8207 35.5394 12.4404C34.6221 12.0602 33.8383 11.4164 33.2869 10.5906C32.7356 9.7648 32.4415 8.79404 32.4419 7.8011C32.4419 7.14197 32.5718 6.4893 32.8241 5.88037C33.0764 5.27144 33.4462 4.71818 33.9124 4.25221C34.3785 3.78623 34.932 3.41667 35.541 3.16462C36.15 2.91258 36.8028 2.783 37.4619 2.78328ZM24.3449 3.9175C25.2709 3.9175 26.176 4.19207 26.9459 4.70649C27.7158 5.22091 28.3158 5.95208 28.6702 6.80752C29.0245 7.66297 29.1172 8.60429 28.9366 9.51243C28.7559 10.4206 28.31 11.2547 27.6553 11.9095C27.0006 12.5642 26.1664 13.0101 25.2582 13.1907C24.3501 13.3714 23.4088 13.2787 22.5534 12.9243C21.6979 12.57 20.9667 11.9699 20.4523 11.2C19.9379 10.4302 19.6633 9.52503 19.6633 8.59909C19.6633 7.35746 20.1566 6.16668 21.0345 5.28871C21.9125 4.41074 23.1033 3.9175 24.3449 3.9175ZM19.9485 19.4051C19.9765 17.7386 20.3497 16.096 21.0444 14.5809C21.9197 15.0667 22.8914 15.3535 23.8902 15.421C24.889 15.4884 25.8904 15.3348 26.8231 14.9711C27.7557 14.6074 28.5967 14.0425 29.2862 13.3167C29.9756 12.5908 30.4966 11.7219 30.8119 10.7718C31.2754 11.8203 31.9805 12.7443 32.8695 13.4682C33.7586 14.192 34.8063 14.6952 35.927 14.9366C37.0478 15.178 38.2097 15.1507 39.3179 14.857C40.4261 14.5632 41.449 14.0114 42.3031 13.2466C43.4487 15.0989 44.0702 17.2274 44.1012 19.4051H19.9485Z" fill="#C4C4C4" fill-opacity="0.6"/>
<path d="M37.4613 4.93489C36.9755 4.93858 36.4987 5.06601 36.0759 5.30516C36.3285 5.30527 36.5758 5.37763 36.7886 5.51372C37.0014 5.64981 37.1708 5.84394 37.2768 6.07319C37.3828 6.30244 37.421 6.55724 37.3869 6.8075C37.3528 7.05777 37.2478 7.29305 37.0843 7.48557C36.9208 7.67809 36.7056 7.81981 36.4642 7.894C36.2228 7.96819 35.9651 7.97175 35.7217 7.90427C35.4784 7.83678 35.2593 7.70107 35.0906 7.51314C34.9218 7.32522 34.8104 7.09293 34.7694 6.8437C34.6543 7.15076 34.5938 7.47555 34.5906 7.80343C34.5902 8.37129 34.7582 8.92651 35.0734 9.39887C35.3885 9.87122 35.8367 10.2395 36.3612 10.4571C36.8858 10.6747 37.463 10.7319 38.02 10.6213C38.577 10.5108 39.0887 10.2376 39.4904 9.83618C39.8921 9.43479 40.1657 8.92329 40.2767 8.36638C40.3876 7.80947 40.3309 7.23216 40.1136 6.70749C39.8964 6.18282 39.5285 5.73436 39.0564 5.41883C38.5842 5.10331 38.0291 4.93489 37.4613 4.93489Z" fill="#C4C4C4" fill-opacity="0.6"/>
<path d="M24.3445 6.06917C23.9168 6.07117 23.4969 6.1833 23.1251 6.39475C23.3477 6.3952 23.5655 6.45932 23.7527 6.57953C23.94 6.69974 24.089 6.87103 24.182 7.07317C24.2751 7.27531 24.3084 7.49986 24.278 7.72031C24.2475 7.94076 24.1547 8.1479 24.0103 8.31727C23.866 8.48665 23.6762 8.61119 23.4634 8.67618C23.2505 8.74118 23.0235 8.74392 22.8092 8.68408C22.5949 8.62424 22.4021 8.50432 22.2537 8.33848C22.1053 8.17264 22.0075 7.96781 21.9718 7.74816C21.8708 8.02067 21.8182 8.30874 21.8164 8.59935C21.8164 9.09936 21.9647 9.58813 22.2425 10.0039C22.5203 10.4196 22.9151 10.7436 23.377 10.935C23.839 11.1263 24.3473 11.1764 24.8377 11.0788C25.3281 10.9813 25.7785 10.7405 26.1321 10.387C26.4857 10.0334 26.7264 9.58295 26.824 9.09255C26.9215 8.60216 26.8714 8.09385 26.6801 7.63191C26.4888 7.16997 26.1647 6.77514 25.749 6.49735C25.3333 6.21956 24.8445 6.0713 24.3445 6.0713V6.06917Z" fill="#C4C4C4" fill-opacity="0.6"/>
</svg>
